<svg width="180" height="180" viewBox="0 0 180 180" fill="none" xmlns="http://www.w3.org/2000/svg">
  <defs>
    <linearGradient id="bg" x1="0" y1="0" x2="180" y2="180" gradientUnits="userSpaceOnUse">
      <stop offset="0%" stop-color="#0A0A0F"/>
      <stop offset="100%" stop-color="#050505"/>
    </linearGradient>
    <linearGradient id="cupgrad" x1="62" y1="48" x2="118" y2="136" gradientUnits="userSpaceOnUse">
      <stop offset="0%" stop-color="#1E6BFF"/>
      <stop offset="100%" stop-color="#0047CC"/>
    </linearGradient>
  </defs>
  <rect width="180" height="180" rx="36" fill="url(#bg)"/>
  <path d="M62 48h56v52c0 17-12.5 30-28 30s-28-13-28-30V48z" fill="url(#cupgrad)" opacity="0.95"/>
  <path d="M62 64H48c0 16 9 26 14 28" stroke="#1E6BFF" stroke-width="5.5" stroke-linecap="round" fill="none"/>
  <path d="M118 64h14c0 16-9 26-14 28" stroke="#1E6BFF" stroke-width="5.5" stroke-linecap="round" fill="none"/>
  <rect x="84" y="130" width="12" height="18" fill="#1E6BFF" rx="2.5"/>
  <rect x="69" y="146" width="42" height="9" fill="#1E6BFF" rx="4.5"/>
  <path d="M90 66l4.5 11h11.5l-9.5 7 3.5 11L90 88l-10 7 3.5-11L74 77h11.5z" fill="#00C896" opacity="0.95"/>
  <circle cx="90" cy="90" r="86" stroke="#1E6BFF" stroke-width="1.5" opacity="0.15" fill="none"/>
</svg>
